<svg width="45" height="45" viewBox="0 0 45 45" fill="none" xmlns="http://www.w3.org/2000/svg">
<path d="M9.07879 38.7703C9.07879 38.7703 9.06944 38.7878 9.07693 38.7687C8.85966 38.578 -10.331 21.6427 7.75285 5.53693C7.75285 5.53693 21.0603 -6.92271 37.913 5.53924C47.2316 14.2585 44.7489 25.0634 44.5667 25.894C40.1309 44.1677 22.3876 42.9218 18.394 42.9234C17.1802 43.7328 15.2889 45 15.2889 45L26.822 18.0047L17.0632 22.9885C17.0632 22.9885 16.5141 23.487 16.1761 23.8191C9.74048 37.2897 9.12072 38.6567 9.07693 38.7687C9.07816 38.7698 9.07879 38.7703 9.07879 38.7703Z" fill="url(#paint0_linear_1586_1330)"/>
<path d="M2.5882 22.6697C2.00045 24.7166 12.6469 20.7235 16.951 19.794C22.2591 18.4272 14.0908 20.547 30.5431 16.2941C37.0044 14.6239 28.6182 27.0349 27.3848 33.917C38.5302 28.1047 40.2434 19.7334 37.7933 15.8579C37.7933 15.8579 35.2516 10.6469 28.6346 9.70405C28.6346 9.70405 17.1261 11.7375 6.43411 15.0629C4.98408 15.1502 3.17571 20.6229 2.5882 22.6697Z" fill="#0F322A"/>
<defs>
<linearGradient id="paint0_linear_1586_1330" x1="8.87161" y1="37.7934" x2="38.3503" y2="7.19507" gradientUnits="userSpaceOnUse">
<stop stop-color="#00A15D"/>
<stop offset="1" stop-color="#00342C"/>
</linearGradient>
</defs>
</svg>
